<svg width="20" height="21" viewBox="0 0 20 21" fill="none" xmlns="http://www.w3.org/2000/svg">
<path d="M19.2181 2.33774L18.0488 1.16851C17.5369 0.656633 16.8634 0.381836 16.1468 0.381836H16.1199C15.3924 0.387224 14.7081 0.683574 14.207 1.21162L2.79489 13.0925C2.79489 13.0925 2.79489 13.1033 2.78412 13.1033C2.7464 13.141 2.71407 13.1895 2.69252 13.238L0.100804 18.8471C-0.0931703 19.2674 -0.00157131 19.7469 0.327107 20.0702C0.537246 20.2696 0.801267 20.3774 1.07068 20.3774C1.23232 20.3774 1.39935 20.3396 1.55561 20.2588L6.64744 17.7102C6.64744 17.7102 6.67438 17.6887 6.68516 17.6779C6.7121 17.6617 6.74443 17.6456 6.77137 17.624L19.1318 6.21184C19.676 5.71074 19.9832 5.02644 19.9993 4.28826C20.0155 3.55008 19.7353 2.85501 19.2127 2.32697L19.2181 2.33774ZM13.2156 3.78716L16.5617 7.13322L6.45885 16.4602L3.91024 13.4859L13.2156 3.78716ZM1.08145 19.2997L3.31755 14.4504L5.55364 17.0582L1.08145 19.2943V19.2997ZM18.4098 5.43056L17.3591 6.40043L13.9646 3.00588L14.9776 1.9498C15.2793 1.63189 15.6888 1.45947 16.1252 1.45408H16.1414C16.5725 1.45408 16.9766 1.62112 17.2837 1.92824L18.4529 3.09748C18.7654 3.40999 18.9325 3.83027 18.9271 4.2721C18.9217 4.71393 18.7331 5.12882 18.4044 5.42517L18.4098 5.43056Z" fill="#242424"/>
<path d="M15.4641 10.5547C15.2863 10.3176 14.9469 10.2691 14.7098 10.4523C14.4727 10.6301 14.4242 10.9695 14.6074 11.2066L14.9469 11.6538L13.0987 13.0386C12.8616 13.2164 12.8131 13.5559 12.991 13.793C13.0987 13.933 13.2604 14.0085 13.422 14.0085C13.5352 14.0085 13.6483 13.9762 13.7453 13.9007L15.5988 12.5106L16.5741 13.7983L14.7152 15.1939C14.4781 15.3717 14.4296 15.7111 14.6074 15.9482C14.7152 16.0883 14.8768 16.1638 15.0385 16.1638C15.1516 16.1638 15.2648 16.1314 15.3618 16.056L17.2261 14.6604L18.0558 15.7542L12.7808 19.7523L9.81193 15.8405C9.63412 15.6034 9.29467 15.5549 9.05759 15.7381C8.82051 15.9159 8.77201 16.2553 8.95521 16.4924L11.9241 20.4042C12.1342 20.6844 12.4575 20.8299 12.7862 20.8299C13.0125 20.8299 13.2388 20.7599 13.4382 20.609L18.7132 16.611C18.9449 16.4385 19.0904 16.1853 19.1281 15.8997C19.1658 15.6142 19.0958 15.3286 18.918 15.1023L15.4695 10.5547H15.4641Z" fill="#242424"/>
<path d="M4.05321 10.0211C4.16097 10.1612 4.32261 10.2367 4.48426 10.2367C4.59741 10.2367 4.71056 10.1989 4.80755 10.1289C5.04463 9.95109 5.09312 9.61163 4.90993 9.37455L1.65008 5.07479L6.9251 1.07676L8.23982 2.81175L6.08994 4.42282C5.85286 4.60063 5.80436 4.94008 5.98217 5.17716C6.08994 5.31725 6.25158 5.39269 6.41323 5.39269C6.52638 5.39269 6.63953 5.36036 6.73652 5.28492L8.8864 3.66847L9.61919 4.63834C9.797 4.87542 10.1365 4.92392 10.3735 4.74072C10.6106 4.56291 10.6591 4.22345 10.4759 3.98637L7.77644 0.42479C7.60401 0.193099 7.35077 0.047618 7.0652 0.00990076C6.77962 -0.0278165 6.49405 0.04223 6.26775 0.22004L1.0035 4.21268C0.529339 4.57369 0.43774 5.24721 0.798747 5.72137L4.05859 10.0211H4.05321Z" fill="#242424"/>
</svg>
