<svg width="24" height="24" viewBox="0 0 24 24" fill="none" xmlns="http://www.w3.org/2000/svg">
<path d="M6.51562 1.44678H17.4854C18.0378 1.44686 18.4824 1.88726 18.4824 2.42627V7.62646C18.4824 8.16547 18.0378 8.60588 17.4854 8.60596H14.0498L14.0205 8.65283L12.9863 10.3188C12.7625 10.6794 12.3824 10.8618 12 10.8618C11.6371 10.8618 11.2755 10.6973 11.0459 10.3657L9.85645 8.64893L9.82617 8.60596H6.51562C5.96309 8.60596 5.51758 8.16552 5.51758 7.62646V2.42627C5.51758 1.88743 5.96311 1.44678 6.51562 1.44678ZM6.88574 7.26416H10.5508L10.9883 7.89502L11.9043 9.21729L11.9902 9.34326L12.0713 9.21338L12.8525 7.95557L13.2812 7.26416H17.1143V2.78857H6.88574V7.26416Z" fill="#242424" stroke="white" stroke-width="0.2"/>
<path d="M2.55762 11.062H21.4424C22.2489 11.0621 22.9002 11.705 22.9004 12.4937V21.1216C22.9002 21.9105 22.2489 22.5531 21.4424 22.5532H2.55762C1.75093 22.5531 1.09976 21.9103 1.09961 21.1216V12.4937C1.09975 11.7049 1.75092 11.0621 2.55762 11.062ZM2.46777 21.2114H21.5322V12.4038H2.46777V21.2114Z" fill="#242424" stroke="white" stroke-width="0.2"/>
<path d="M18.543 15.1523H19.5693C19.9871 15.1525 20.3242 15.4893 20.3242 15.9023C20.3241 16.3156 19.9868 16.6512 19.5693 16.6514H18.543C18.1253 16.6514 17.7872 16.3157 17.7871 15.9023C17.7871 15.4889 18.1253 15.1523 18.543 15.1523Z" fill="#242424" stroke="white" stroke-width="0.2"/>
<path d="M18.543 18.21H19.5693C19.9871 18.2101 20.3242 18.5466 20.3242 18.96C20.3241 19.3732 19.9868 19.7088 19.5693 19.709H18.543C18.1253 19.709 17.7872 19.3733 17.7871 18.96C17.7871 18.5466 18.1253 18.21 18.543 18.21Z" fill="#242424" stroke="white" stroke-width="0.2"/>
<path d="M4.52734 15.1523H5.38281C5.80051 15.1526 6.1377 15.4893 6.1377 15.9023C6.13761 16.3155 5.80024 16.6511 5.38281 16.6514H4.52734C4.10948 16.6514 3.77157 16.3157 3.77148 15.9023C3.77148 15.4889 4.10966 15.1523 4.52734 15.1523Z" fill="#242424" stroke="white" stroke-width="0.2"/>
<path d="M9.15234 15.1523H10.1787C10.5965 15.1525 10.9336 15.4893 10.9336 15.9023C10.9335 16.3156 10.5962 16.6512 10.1787 16.6514H9.15234C8.73448 16.6514 8.39657 16.3157 8.39648 15.9023C8.39648 15.4889 8.73466 15.1523 9.15234 15.1523Z" fill="#242424" stroke="white" stroke-width="0.2"/>
<path d="M13.9336 15.1523H14.7891C15.2068 15.1526 15.5439 15.4893 15.5439 15.9023C15.5439 16.3155 15.2065 16.6511 14.7891 16.6514H13.9336C13.516 16.6514 13.1778 16.3157 13.1777 15.9023C13.1777 15.4889 13.5159 15.1523 13.9336 15.1523Z" fill="#242424" stroke="white" stroke-width="0.2"/>
<path d="M4.52734 18.3799H5.38281C5.80051 18.3801 6.1377 18.7168 6.1377 19.1299C6.13761 19.5431 5.80024 19.8787 5.38281 19.8789H4.52734C4.10948 19.8789 3.77157 19.5432 3.77148 19.1299C3.77148 18.7165 4.10966 18.3799 4.52734 18.3799Z" fill="#242424" stroke="white" stroke-width="0.2"/>
<path d="M9.32422 18.3799H14.626C15.0436 18.3799 15.3816 18.7164 15.3818 19.1299C15.3817 19.5432 15.0436 19.8789 14.626 19.8789H9.32422C8.90638 19.8789 8.56845 19.543 8.56836 19.1299C8.56836 18.7165 8.90653 18.3799 9.32422 18.3799Z" fill="#242424" stroke="white" stroke-width="0.2"/>
<path d="M9.60547 3.47852C9.80517 3.47857 10.0007 3.55908 10.1406 3.69824C10.2806 3.83719 10.3604 4.03084 10.3604 4.22852C10.3603 4.3764 10.316 4.52156 10.2344 4.64355L10.1406 4.75684C10.0004 4.89636 9.80465 4.97748 9.60547 4.97754C9.45736 4.97754 9.31 4.93236 9.18652 4.85059L9.07227 4.75684L8.97754 4.64258C8.8956 4.52025 8.84964 4.37483 8.84961 4.22852C8.84961 4.03131 8.93192 3.83765 9.07227 3.69824C9.21228 3.55896 9.40755 3.47852 9.60547 3.47852Z" fill="#242424" stroke="white" stroke-width="0.2"/>
<path d="M12.0586 3.47852C12.2583 3.47857 12.4539 3.55908 12.5938 3.69824C12.7337 3.83719 12.8135 4.03084 12.8135 4.22852C12.8134 4.37552 12.7683 4.52118 12.6865 4.64355L12.5938 4.75684C12.4535 4.89636 12.2578 4.97748 12.0586 4.97754C11.8615 4.97754 11.6661 4.89654 11.5254 4.75684C11.3848 4.61738 11.3028 4.42552 11.3027 4.22852C11.3027 4.03131 11.385 3.83765 11.5254 3.69824C11.6654 3.55896 11.8607 3.47852 12.0586 3.47852Z" fill="#242424" stroke="white" stroke-width="0.2"/>
<path d="M14.5352 3.47852C14.7348 3.47857 14.9301 3.559 15.0703 3.69824C15.2101 3.83725 15.29 4.03094 15.29 4.22852C15.29 4.42422 15.2102 4.61778 15.0703 4.75684C14.9297 4.89644 14.7343 4.97748 14.5352 4.97754C14.3869 4.97754 14.2396 4.93235 14.1162 4.85059L14.002 4.75684L13.9072 4.64258C13.8253 4.52025 13.7793 4.37483 13.7793 4.22852C13.7793 4.03131 13.8616 3.83765 14.002 3.69824C14.142 3.55895 14.337 3.47852 14.5352 3.47852Z" fill="#242424" stroke="white" stroke-width="0.2"/>
</svg>
